<?xml version="1.0" standalone="no"?>
<!DOCTYPE svg PUBLIC "-//W3C//DTD SVG 20010904//EN"
 "http://www.w3.org/TR/2001/REC-SVG-20010904/DTD/svg10.dtd">
<svg version="1.0" xmlns="http://www.w3.org/2000/svg"
 width="1353.000000pt" height="1245.000000pt" viewBox="0 0 1353.000000 1245.000000"
 preserveAspectRatio="xMidYMid meet">

<g transform="translate(0.000000,1245.000000) scale(0.100000,-0.100000)"
fill="#000000" stroke="none">
<path d="M9210 11739 c0 -5 4 -8 8 -5 5 3 26 -15 48 -39 21 -25 44 -45 49 -45
15 0 325 -313 325 -328 0 -6 5 -12 11 -12 5 0 8 -4 4 -9 -3 -5 3 -16 12 -23
22 -16 63 -73 63 -87 0 -6 6 -14 13 -18 8 -4 17 -15 20 -23 4 -8 18 -33 31
-55 13 -22 41 -74 63 -115 21 -41 41 -77 45 -80 3 -3 10 -18 13 -33 4 -15 11
-27 15 -27 5 0 11 -13 15 -30 4 -16 11 -30 17 -30 5 0 8 -6 5 -12 -2 -7 6 -31
18 -53 13 -22 26 -55 30 -72 3 -18 11 -33 16 -33 5 0 9 -7 9 -16 0 -16 14 -51
53 -134 12 -25 22 -47 22 -50 1 -22 76 -183 86 -188 4 -2 5 -12 2 -22 -3 -11
-1 -20 5 -20 6 0 14 -15 17 -32 4 -18 11 -37 15 -43 4 -5 11 -25 15 -42 3 -18
11 -33 16 -33 6 0 9 -8 8 -17 -2 -21 10 -53 28 -71 7 -7 13 -20 13 -29 0 -8 7
-31 16 -51 9 -21 22 -50 29 -67 7 -16 20 -46 28 -65 8 -19 23 -55 32 -80 10
-25 27 -65 38 -90 12 -25 22 -49 22 -55 1 -11 7 -24 36 -92 11 -23 19 -47 19
-52 0 -6 4 -11 9 -11 5 0 12 -16 15 -35 4 -19 11 -35 16 -35 6 0 10 -10 10
-23 0 -12 6 -31 14 -42 7 -11 17 -35 21 -52 3 -18 11 -33 16 -33 5 0 9 -7 9
-16 0 -15 12 -46 45 -119 8 -16 19 -49 26 -72 7 -24 16 -43 21 -43 4 0 8 -7 8
-16 0 -8 9 -36 21 -62 11 -26 25 -58 30 -72 6 -14 17 -38 25 -53 8 -16 14 -33
14 -39 0 -9 14 -45 45 -113 8 -16 24 -55 36 -85 12 -30 28 -69 35 -87 8 -17
14 -34 14 -38 0 -12 34 -80 43 -86 4 -3 7 -10 6 -15 -3 -17 13 -54 23 -54 6 0
7 -7 4 -16 -3 -8 2 -27 11 -41 10 -15 18 -31 18 -37 0 -11 31 -82 60 -139 8
-16 15 -34 15 -40 0 -7 6 -24 14 -39 8 -15 17 -40 21 -57 4 -17 11 -31 16 -31
5 0 9 -7 9 -15 0 -21 33 -95 43 -95 4 0 6 -4 3 -9 -3 -5 1 -22 9 -37 8 -16 15
-35 15 -41 0 -7 5 -13 10 -13 6 0 10 -6 9 -12 -2 -20 12 -58 22 -58 5 0 9 -8
9 -17 0 -10 6 -30 14 -45 8 -15 17 -40 21 -57 4 -17 11 -31 16 -31 5 0 9 -7 9
-16 0 -15 8 -36 41 -109 7 -16 14 -34 15 -40 0 -5 6 -23 12 -38 7 -16 12 -33
12 -38 0 -5 4 -9 9 -9 5 0 12 -16 15 -35 4 -19 11 -35 16 -35 6 0 10 -8 10
-17 1 -10 9 -36 20 -58 11 -22 19 -46 20 -52 0 -14 20 -19 20 -5 0 4 -5 24
-11 45 -10 37 -30 146 -52 284 -7 39 -15 75 -19 79 -5 4 -8 18 -8 32 0 25 -37
217 -46 242 -4 8 -8 29 -9 45 -2 17 -10 64 -19 105 -9 41 -23 107 -30 145 -8
39 -21 104 -30 145 -8 41 -33 163 -54 270 -22 107 -43 209 -46 225 -4 17 -13
62 -21 100 -36 178 -43 210 -45 210 -1 0 -3 11 -5 25 -3 31 -22 132 -35 185
-5 22 -16 76 -25 120 -38 183 -44 214 -60 295 -25 126 -44 217 -60 295 -19 90
-34 165 -46 240 -6 33 -13 67 -16 75 -4 8 -7 24 -8 35 -1 11 -12 63 -23 115
-11 52 -23 112 -27 134 -3 21 -10 46 -15 55 -10 19 -22 52 -25 66 -1 12 -6 25
-46 120 -15 39 -31 82 -35 98 -3 15 -10 27 -15 27 -5 0 -9 8 -9 18 0 18 -95
212 -108 222 -4 3 -13 16 -20 30 -23 47 -90 142 -104 148 -5 2 -6 7 -3 12 3 5
-13 24 -35 43 -22 18 -40 38 -40 44 0 5 -51 58 -112 117 -164 157 -162 156
-174 156 -6 0 -19 9 -29 20 -10 11 -24 20 -30 20 -7 0 -15 7 -19 15 -3 8 -12
15 -21 15 -8 0 -15 5 -15 11 0 6 -7 9 -15 5 -8 -3 -15 -1 -15 4 0 12 -140 80
-175 85 -5 1 -18 5 -27 8 -43 16 -54 20 -68 23 -8 2 -37 8 -65 14 -77 17 -92
20 -220 35 -146 17 -235 19 -235 4z"/>
<path d="M8270 11373 c-121 -19 -247 -51 -320 -81 -8 -3 -19 -7 -25 -7 -9 -2
-16 -4 -62 -22 -10 -3 -22 -5 -27 -4 -4 1 -13 -2 -20 -7 -6 -5 -24 -12 -41
-16 -40 -9 -85 -29 -85 -38 0 -3 -9 -4 -20 -1 -12 3 -20 0 -20 -6 0 -7 -6 -11
-12 -9 -15 3 -79 -17 -128 -40 -19 -9 -37 -17 -40 -17 -23 -4 -75 -24 -135
-51 -16 -7 -43 -16 -60 -20 -16 -4 -34 -10 -40 -14 -5 -4 -34 -13 -63 -20 -28
-6 -54 -16 -57 -20 -3 -5 -23 -11 -45 -15 -22 -4 -40 -10 -40 -15 0 -4 -22
-11 -49 -15 -28 -4 -55 -13 -62 -21 -6 -8 -17 -14 -24 -14 -8 0 -26 -6 -42
-14 -46 -24 -100 -46 -112 -46 -6 0 -19 -4 -29 -9 -9 -5 -44 -18 -77 -31 -33
-12 -68 -26 -77 -31 -10 -5 -22 -9 -27 -9 -5 0 -20 -4 -33 -9 -13 -5 -26 -9
-31 -10 -4 0 -22 -8 -40 -18 -17 -9 -36 -16 -41 -15 -4 2 -13 -1 -20 -6 -6 -6
-27 -13 -46 -17 -19 -4 -39 -10 -45 -14 -5 -4 -43 -18 -83 -30 -40 -13 -75
-27 -78 -32 -3 -5 -12 -9 -21 -9 -8 0 -29 -6 -46 -14 -18 -7 -54 -21 -82 -31
-27 -10 -63 -23 -80 -31 -16 -7 -46 -17 -65 -23 -52 -15 -121 -40 -160 -59
-19 -9 -40 -15 -47 -14 -6 1 -14 -2 -18 -8 -3 -5 -14 -10 -23 -10 -9 0 -37
-10 -62 -22 -25 -11 -49 -22 -55 -23 -5 0 -17 -4 -25 -8 -8 -3 -37 -13 -65
-21 -27 -8 -75 -24 -105 -37 -30 -12 -73 -28 -95 -37 -22 -8 -54 -21 -72 -28
-17 -8 -45 -17 -62 -20 -17 -4 -34 -11 -37 -15 -3 -5 -12 -9 -21 -9 -8 0 -29
-6 -46 -14 -32 -14 -67 -28 -77 -31 -20 -5 -60 -19 -85 -30 -16 -7 -77 -29
-135 -50 -58 -21 -119 -44 -137 -51 -17 -8 -36 -14 -41 -14 -6 0 -23 -6 -39
-14 -46 -24 -100 -46 -112 -46 -20 0 -11 -26 19 -55 17 -16 30 -34 30 -41 0
-7 27 -36 59 -65 33 -29 58 -56 56 -60 -3 -3 37 -47 88 -97 51 -50 91 -95 89
-100 -1 -5 14 -24 35 -43 21 -19 46 -47 56 -62 9 -15 24 -27 32 -27 8 0 15 -6
15 -13 0 -7 41 -53 90 -102 50 -49 94 -94 98 -101 4 -7 46 -53 94 -101 47 -48
86 -92 86 -98 0 -5 9 -12 19 -16 10 -4 14 -8 9 -8 -10 -1 86 -106 235 -256 49
-49 89 -95 89 -101 0 -6 31 -41 69 -77 38 -37 67 -67 63 -67 -3 0 3 -9 13 -20
10 -11 22 -17 26 -14 5 3 9 -1 9 -8 0 -8 54 -67 120 -133 66 -65 120 -122 120
-127 0 -5 27 -36 59 -68 33 -32 57 -60 55 -62 -2 -3 41 -49 96 -102 55 -54 98
-102 95 -105 -2 -4 41 -50 95 -101 55 -51 100 -99 100 -105 0 -7 34 -44 75
-83 41 -40 71 -72 68 -72 -4 0 24 -31 62 -70 38 -38 65 -70 60 -70 -4 0 2 -11
15 -25 13 -14 30 -23 38 -20 8 3 10 0 6 -6 -4 -7 29 -48 78 -98 165 -168 258
-267 258 -278 0 -6 45 -53 99 -106 55 -52 98 -97 95 -99 -2 -3 31 -39 75 -81
43 -42 76 -79 74 -81 -3 -3 56 -65 131 -138 75 -74 136 -139 136 -144 0 -6 41
-50 90 -98 50 -49 90 -91 90 -95 0 -4 36 -42 80 -86 44 -44 80 -85 80 -91 0
-6 38 -47 85 -91 47 -44 83 -82 80 -85 -3 -3 29 -38 70 -79 41 -40 75 -78 75
-84 0 -6 34 -43 75 -82 41 -40 75 -76 75 -80 0 -5 50 -58 110 -118 61 -60 110
-115 110 -120 0 -6 41 -49 90 -96 50 -46 90 -88 90 -94 0 -5 33 -44 74 -85
152 -155 269 -280 262 -280 -5 0 67 -78 158 -174 91 -95 166 -178 166 -183 0
-6 46 -54 103 -108 56 -53 104 -103 107 -110 3 -8 38 -47 78 -88 39 -41 72
-79 72 -83 0 -5 43 -50 95 -99 52 -50 95 -95 95 -101 0 -5 43 -52 95 -103 52
-52 95 -98 95 -104 0 -6 50 -57 110 -115 61 -57 110 -109 110 -116 0 -6 53
-64 118 -129 110 -110 144 -132 166 -110 4 5 11 8 14 9 4 0 27 6 51 13 39 11
72 25 186 76 17 7 50 21 75 30 74 28 170 77 170 87 0 5 4 6 10 3 5 -3 15 3 21
14 7 10 19 17 26 14 7 -3 13 0 13 6 0 6 10 15 23 20 12 5 43 27 69 50 25 23
50 41 54 41 14 0 214 204 214 218 0 7 7 15 16 19 8 3 20 15 25 27 11 25 31 59
40 66 9 7 63 113 65 125 0 6 6 21 11 35 6 14 12 30 13 35 1 6 5 15 10 20 9 12
25 76 22 89 -2 4 1 13 7 20 24 30 41 283 30 438 -11 137 -20 187 -63 358 -8
29 -48 145 -61 175 -11 27 -25 61 -30 75 -1 3 -5 19 -10 35 -4 17 -14 41 -21
55 -18 37 -27 63 -25 77 1 6 -3 14 -9 18 -5 3 -10 14 -10 23 0 9 -6 29 -14 43
-7 14 -16 39 -20 55 -6 25 -16 51 -46 114 -4 9 -11 31 -15 49 -4 18 -18 57
-31 87 -13 30 -24 57 -25 62 -3 16 -11 38 -20 54 -5 10 -9 23 -9 29 0 6 -6 25
-14 42 -7 18 -22 57 -33 87 -12 30 -24 64 -28 75 -5 11 -9 25 -10 30 -6 28
-18 55 -25 55 -5 0 -6 9 -3 20 3 11 1 20 -5 20 -6 0 -13 18 -17 40 -4 22 -11
40 -16 40 -5 0 -9 9 -9 20 0 11 -5 20 -11 20 -5 0 -7 5 -3 11 6 10 0 28 -32
92 -8 16 -14 36 -14 45 0 9 -6 29 -14 44 -8 15 -17 41 -21 59 -4 19 -11 40
-15 49 -30 63 -40 89 -46 114 -4 16 -13 41 -20 55 -8 14 -14 33 -14 42 0 9 -3
19 -7 23 -5 4 -8 11 -9 14 0 4 -7 21 -14 37 -7 17 -12 34 -11 39 1 4 -2 13 -7
20 -6 6 -13 27 -17 46 -4 19 -11 41 -16 50 -15 29 -38 85 -60 153 -12 37 -26
70 -30 73 -5 3 -9 15 -9 27 -1 12 -9 40 -20 62 -11 22 -19 48 -20 57 0 20 -31
90 -43 99 -4 3 -7 10 -6 15 1 5 -1 17 -4 27 -4 9 -10 25 -14 35 -3 9 -7 20 -7
24 -1 3 -4 10 -8 14 -5 4 -8 16 -8 26 0 10 -4 18 -9 18 -6 0 -10 8 -9 18 0 15
-38 133 -62 190 -24 55 -29 69 -41 107 -6 22 -15 44 -20 50 -5 5 -9 16 -9 25
0 8 -6 27 -14 42 -8 15 -17 42 -21 60 -4 18 -11 38 -15 43 -4 6 -10 24 -14 40
-10 44 -40 115 -48 115 -5 0 -8 9 -8 21 0 19 -29 101 -51 141 -5 10 -9 23 -9
28 0 11 -32 88 -49 120 -4 8 -14 39 -20 68 -7 28 -17 52 -22 52 -5 0 -9 11 -9
25 0 14 -4 25 -10 25 -5 0 -7 6 -4 14 3 8 1 17 -5 21 -6 3 -11 14 -11 23 0 9
-7 30 -15 46 -8 15 -15 33 -15 40 -1 6 -9 29 -20 51 -11 22 -19 48 -20 57 0 9
-4 19 -9 22 -5 3 -12 22 -15 41 -4 19 -11 35 -15 35 -5 0 -12 16 -15 35 -4 19
-13 47 -21 62 -8 15 -15 34 -15 41 0 6 -4 12 -10 12 -5 0 -10 9 -10 19 0 11
-5 23 -11 27 -9 5 -10 -1 -5 -22 3 -16 11 -65 16 -109 5 -44 12 -89 15 -100 3
-11 12 -72 20 -135 23 -180 25 -191 35 -255 5 -33 12 -80 15 -105 3 -25 10
-72 15 -105 5 -33 12 -87 15 -120 4 -33 11 -91 16 -130 5 -38 14 -113 19 -165
6 -52 13 -104 16 -115 3 -11 11 -76 19 -145 8 -69 16 -138 19 -155 6 -36 34
-251 46 -350 5 -38 14 -97 19 -130 15 -87 31 -207 40 -305 5 -47 13 -112 19
-145 6 -33 18 -123 27 -200 9 -77 20 -162 25 -190 6 -27 15 -95 21 -150 6 -55
13 -103 15 -107 3 -4 12 -61 20 -125 9 -65 22 -165 29 -223 8 -58 16 -121 18
-140 3 -19 12 -91 20 -160 9 -69 21 -163 27 -210 5 -47 14 -112 20 -145 5 -33
16 -112 25 -175 9 -63 20 -144 26 -180 5 -36 14 -101 19 -145 27 -232 40 -329
54 -420 9 -55 19 -148 22 -208 7 -105 7 -107 -14 -107 -20 0 -96 63 -87 72 2
2 -47 55 -110 118 -63 63 -115 119 -115 125 0 5 -43 51 -95 101 -52 50 -95 96
-95 101 0 5 -34 42 -75 82 -40 40 -77 80 -80 90 -3 10 -30 39 -60 66 -30 26
-53 51 -50 55 2 4 -60 71 -139 148 -79 77 -142 142 -140 145 2 2 -32 39 -76
82 -44 43 -78 80 -75 84 4 3 -32 44 -78 91 -169 170 -287 296 -287 307 0 6
-40 48 -90 94 -49 46 -90 88 -90 94 0 7 -39 50 -87 96 -49 46 -90 89 -93 96
-3 7 -54 62 -113 122 -59 61 -107 113 -107 116 0 4 -20 30 -45 58 -25 29 -45
57 -45 64 0 7 -3 13 -7 13 -5 0 -8 15 -9 33 -1 34 -24 207 -50 377 -17 114
-18 118 -40 295 -27 216 -45 349 -55 409 -6 32 -14 107 -19 167 -5 60 -11 113
-14 118 -3 4 -10 62 -16 127 -6 65 -14 126 -17 134 -4 8 -13 67 -20 130 -7 63
-15 129 -18 145 -4 32 -28 225 -45 365 -6 47 -15 108 -20 135 -5 28 -16 106
-25 175 -15 120 -29 230 -60 460 -8 58 -21 159 -30 225 -15 112 -29 214 -56
395 -17 118 -40 332 -40 370 0 19 -5 74 -10 122 -14 128 -11 134 69 147 185
31 421 63 572 77 25 2 86 10 135 18 50 8 144 22 210 31 66 9 149 21 185 26 36
6 99 14 140 20 60 8 144 26 158 34 6 4 -30 65 -39 65 -5 0 -9 6 -9 13 0 7 -13
26 -30 42 -16 16 -27 31 -25 34 7 7 -146 161 -160 161 -6 0 -37 25 -69 55 -32
30 -62 55 -68 55 -6 0 -27 13 -47 29 -21 16 -49 33 -64 36 -15 4 -27 11 -27
15 0 5 -13 11 -30 15 -16 4 -30 11 -30 16 0 5 -3 8 -7 7 -5 -1 -19 3 -33 9
-181 74 -236 83 -478 82 -114 -1 -218 -4 -232 -6z"/>
<path d="M2435 9281 c-126 -52 -258 -116 -321 -157 -29 -19 -56 -34 -60 -34
-4 0 -51 -29 -105 -65 -107 -72 -240 -195 -317 -295 -84 -110 -185 -284 -207
-360 -4 -14 -11 -30 -16 -36 -5 -6 -13 -42 -19 -80 -6 -38 -16 -100 -22 -139
-19 -125 7 -460 42 -540 5 -11 12 -36 15 -55 10 -54 146 -457 181 -537 8 -17
14 -38 14 -46 0 -9 5 -19 10 -22 6 -3 10 -14 10 -23 1 -9 9 -35 20 -57 11 -22
19 -48 20 -57 0 -9 5 -20 10 -23 6 -3 10 -14 10 -23 1 -9 9 -35 20 -57 11 -22
19 -45 20 -52 0 -12 22 -67 41 -105 5 -10 9 -23 9 -29 0 -6 6 -25 14 -42 14
-31 66 -176 89 -247 6 -19 14 -37 18 -40 3 -3 10 -21 14 -40 4 -19 11 -41 15
-50 4 -8 18 -42 30 -75 12 -33 26 -69 30 -80 5 -11 18 -49 30 -85 21 -64 58
-166 81 -225 7 -16 13 -32 14 -35 8 -33 31 -88 71 -177 8 -17 14 -36 14 -42 0
-6 4 -19 10 -29 5 -9 26 -66 46 -127 21 -60 41 -114 45 -120 4 -5 10 -27 14
-48 4 -20 11 -40 16 -43 5 -3 9 -13 9 -22 1 -9 9 -35 20 -57 11 -22 19 -48 20
-57 0 -10 4 -18 9 -18 5 0 12 -17 16 -37 4 -21 11 -42 15 -48 5 -5 9 -14 10
-20 4 -17 11 -39 22 -65 5 -14 17 -45 25 -70 8 -25 21 -58 29 -75 7 -16 19
-48 27 -70 58 -168 70 -201 77 -210 4 -5 11 -25 15 -43 4 -18 13 -45 21 -60 8
-15 14 -32 14 -38 0 -7 7 -25 15 -40 8 -16 15 -37 15 -46 0 -9 5 -20 10 -23 6
-3 10 -19 10 -34 0 -15 5 -32 11 -38 6 -6 22 -44 36 -85 14 -40 29 -77 34 -83
5 -5 9 -16 9 -25 0 -8 6 -26 13 -40 7 -14 19 -47 27 -75 8 -27 20 -61 27 -75
7 -14 13 -31 13 -38 0 -7 4 -20 9 -30 5 -9 19 -46 31 -82 12 -36 25 -72 30
-81 5 -9 12 -33 15 -53 4 -20 11 -39 16 -42 5 -3 9 -14 9 -24 0 -10 12 -42 27
-72 15 -29 35 -73 43 -97 26 -72 38 -61 23 21 -7 40 -20 127 -27 193 -8 66
-22 170 -30 230 -18 130 -16 115 -61 465 -19 151 -40 298 -45 325 -5 28 -12
79 -15 115 -3 36 -10 90 -16 120 -5 30 -16 114 -25 185 -22 182 -40 322 -59
450 -8 61 -22 157 -30 215 -8 58 -21 157 -30 220 -9 63 -20 147 -25 185 -18
144 -50 384 -65 490 -35 242 -45 311 -49 331 -17 92 -47 323 -55 434 -12 156
-30 304 -59 480 -33 199 -78 536 -87 650 -3 41 -10 107 -15 145 -15 112 -13
225 4 225 8 0 16 -4 18 -10 2 -5 107 -114 233 -242 213 -215 683 -699 970
-998 66 -68 192 -199 280 -290 350 -360 426 -440 535 -560 149 -166 156 -177
165 -280 4 -47 11 -104 16 -126 4 -23 16 -99 25 -170 29 -234 43 -338 59 -454
30 -211 45 -324 55 -410 6 -47 13 -92 15 -100 2 -8 9 -53 14 -100 10 -77 22
-176 67 -510 8 -63 23 -185 34 -270 11 -85 26 -203 35 -263 34 -244 44 -316
54 -397 6 -47 15 -112 21 -145 5 -33 16 -116 25 -185 23 -182 44 -341 60 -460
24 -169 35 -249 45 -340 6 -47 13 -98 17 -115 7 -35 8 -44 24 -193 13 -124 9
-138 -38 -140 -16 0 -59 -6 -98 -12 -38 -6 -90 -14 -115 -16 -42 -5 -148 -19
-330 -44 -41 -6 -136 -17 -210 -25 -74 -8 -145 -17 -158 -20 -13 -3 -69 -12
-125 -20 -88 -12 -182 -27 -340 -52 -21 -3 -40 -9 -42 -13 -14 -23 215 -284
325 -369 74 -58 269 -181 286 -181 5 0 32 -11 59 -25 28 -13 75 -29 105 -35
30 -6 77 -18 104 -26 91 -26 369 -10 636 38 39 7 465 153 468 160 2 4 11 8 20
8 10 1 35 9 57 20 22 11 48 19 58 20 9 0 17 4 17 9 0 5 16 12 35 15 19 4 47
13 62 21 15 8 35 15 43 15 9 0 20 4 25 9 6 4 35 16 65 25 30 10 69 24 85 31
60 25 221 84 248 91 15 3 30 10 33 15 3 5 13 9 22 9 9 0 29 6 44 14 15 8 41
17 58 21 17 4 43 13 58 21 15 8 35 14 44 14 9 0 19 4 23 9 3 5 20 13 37 17 18
3 39 10 48 14 24 13 292 109 323 116 15 3 30 10 33 15 3 5 13 9 22 9 9 1 35 9
57 20 22 11 46 19 53 20 7 0 20 4 30 9 9 5 44 19 77 31 33 12 69 25 80 30 11
4 67 25 125 45 58 20 114 41 125 46 11 4 56 20 100 35 44 14 84 30 90 35 5 5
15 9 23 9 8 0 28 6 45 14 18 7 55 21 82 31 28 10 64 23 80 30 17 7 57 23 90
34 33 11 92 32 130 47 39 14 79 28 90 31 11 3 25 9 30 13 6 4 24 10 40 14 17
4 44 13 60 21 17 7 59 23 95 35 36 13 69 27 75 32 5 4 15 8 23 8 8 0 28 6 45
14 18 7 79 31 137 51 58 21 109 42 115 47 5 4 15 8 23 8 7 0 32 8 55 19 23 10
61 27 85 37 23 10 42 20 42 23 0 23 -162 197 -550 596 -108 110 -272 279 -365
375 -94 96 -258 264 -365 375 -108 110 -274 281 -370 380 -96 99 -279 286
-405 415 -212 216 -543 553 -662 675 -116 119 -386 407 -450 480 -39 44 -108
117 -154 162 -128 125 -492 494 -819 833 -162 167 -374 385 -470 485 -97 99
-238 245 -315 325 -157 163 -330 342 -550 570 -82 85 -175 180 -205 211 -432
447 -930 947 -981 985 -26 19 -53 34 -60 33 -8 0 -54 -17 -104 -38z"/>
<path d="M11575 6840 c3 -5 8 -10 11 -10 2 0 4 5 4 10 0 6 -5 10 -11 10 -5 0
-7 -4 -4 -10z"/>
<path d="M1567 5758 c3 -24 11 -70 18 -103 8 -33 17 -80 21 -105 3 -24 10 -51
15 -60 4 -8 13 -42 19 -75 6 -33 17 -94 25 -135 8 -41 19 -104 25 -140 7 -36
15 -69 19 -75 4 -5 8 -26 10 -45 1 -19 6 -51 11 -70 5 -19 12 -53 16 -75 3
-22 10 -60 15 -85 6 -25 14 -70 19 -100 5 -30 12 -66 16 -80 3 -14 12 -54 19
-90 7 -36 14 -65 15 -65 2 0 25 -118 34 -175 2 -14 11 -61 21 -105 17 -81 31
-147 59 -285 9 -41 22 -106 31 -145 25 -112 45 -215 55 -284 6 -35 13 -67 16
-72 5 -8 14 -57 45 -234 6 -33 15 -64 20 -69 5 -6 9 -21 9 -35 0 -15 14 -91
31 -171 17 -80 34 -167 39 -195 5 -27 14 -68 19 -90 20 -75 64 -260 72 -300 4
-22 17 -74 28 -115 11 -41 25 -95 32 -120 7 -25 15 -49 20 -55 4 -5 10 -27 14
-47 4 -21 12 -38 17 -38 6 0 7 -7 4 -15 -3 -9 -2 -23 3 -33 10 -19 24 -53 25
-64 1 -3 4 -10 9 -14 4 -4 7 -14 7 -22 0 -8 7 -30 16 -50 8 -21 21 -50 28 -67
7 -16 23 -52 36 -80 13 -27 24 -52 25 -55 7 -27 70 -143 80 -147 8 -2 11 -11
8 -19 -3 -8 0 -14 6 -14 6 0 11 -7 11 -15 0 -9 6 -18 14 -21 8 -3 17 -16 20
-30 4 -13 11 -24 16 -24 6 0 10 -7 10 -15 0 -8 9 -19 20 -25 11 -6 20 -17 20
-24 0 -7 11 -23 25 -36 14 -13 25 -28 25 -33 0 -11 183 -193 191 -190 3 1 19
-11 34 -27 16 -17 33 -30 38 -30 5 0 21 -12 34 -26 13 -14 27 -24 30 -20 3 3
13 -3 20 -14 8 -11 19 -18 24 -15 5 4 9 2 9 -3 0 -9 6 -12 100 -57 30 -14 71
-35 90 -45 19 -10 44 -19 55 -19 24 0 154 -26 175 -35 8 -3 78 -12 155 -20
111 -12 161 -13 243 -4 56 6 102 15 102 20 0 4 -6 8 -13 8 -8 0 -22 9 -32 20
-10 11 -22 20 -27 20 -4 0 -24 18 -44 40 -21 23 -41 39 -47 37 -10 -3 -177
159 -177 172 0 4 -22 30 -50 58 -27 28 -50 56 -50 61 0 6 -11 19 -25 30 -13
11 -30 31 -36 46 -7 14 -16 26 -21 26 -4 0 -8 5 -8 10 0 9 -36 66 -50 80 -3 3
-11 16 -18 30 -6 14 -16 32 -22 40 -34 53 -101 173 -121 218 -13 28 -27 52
-31 52 -5 0 -8 7 -8 15 0 8 -4 15 -10 15 -5 0 -7 7 -4 15 4 8 1 15 -5 15 -6 0
-11 7 -11 15 0 8 -5 15 -11 15 -5 0 -8 4 -5 9 6 9 -73 174 -86 179 -5 2 -5 8
-2 13 3 6 1 15 -4 22 -5 7 -13 27 -17 45 -4 18 -13 45 -21 60 -8 15 -14 33
-14 40 0 6 -4 12 -10 12 -5 0 -10 8 -10 18 0 9 -14 44 -30 77 -17 32 -29 64
-26 71 2 6 -4 21 -15 32 -10 12 -19 26 -19 31 0 5 -5 22 -12 38 -6 15 -12 30
-13 33 -1 3 -8 19 -15 35 -7 17 -14 36 -16 43 -1 7 -9 24 -18 37 -9 13 -16 30
-16 37 0 7 -9 30 -20 51 -11 20 -20 42 -20 48 0 11 -16 50 -45 114 -8 17 -17
42 -21 58 -3 15 -10 27 -14 27 -5 0 -11 18 -15 40 -4 22 -10 40 -15 40 -4 0
-11 16 -14 35 -4 19 -11 35 -16 35 -6 0 -10 7 -10 16 0 15 -11 45 -45 119 -8
17 -24 55 -36 85 -13 30 -27 58 -32 61 -5 4 -7 11 -3 17 3 6 2 13 -4 17 -5 3
-10 13 -10 21 0 21 -33 94 -43 94 -4 0 -6 4 -3 9 3 5 -1 22 -9 37 -8 16 -15
33 -15 38 0 5 -14 39 -31 75 -17 36 -35 77 -41 91 -5 14 -16 38 -24 53 -8 16
-14 33 -14 39 0 11 -23 66 -46 111 -8 16 -14 32 -14 37 0 5 -5 21 -12 37 -6
15 -11 31 -10 36 1 4 -2 7 -8 7 -5 0 -10 7 -10 16 0 15 -5 29 -47 124 -8 19
-21 49 -28 65 -7 17 -21 51 -32 77 -10 27 -22 48 -26 48 -5 0 -6 4 -3 9 3 5
-2 24 -11 42 -10 19 -18 39 -19 45 -1 5 -11 29 -22 52 -11 24 -24 56 -27 72
-4 17 -10 30 -15 30 -4 0 -11 16 -14 35 -4 19 -12 35 -18 35 -5 0 -8 7 -4 15
3 8 1 15 -4 15 -6 0 -10 6 -10 14 0 8 -6 27 -14 43 -16 32 -26 56 -56 133 -49
124 -85 205 -93 211 -4 3 -7 10 -6 15 1 5 -4 23 -11 39 -7 17 -14 35 -14 40
-1 6 -12 33 -25 60 -12 28 -30 67 -39 87 -10 21 -20 38 -24 38 -3 0 -4 9 -1
20 3 11 1 20 -5 20 -6 0 -14 14 -17 32 -4 17 -18 51 -31 76 -13 25 -24 49 -24
55 0 5 -9 28 -19 51 -55 118 -65 142 -63 149 1 4 -2 7 -7 7 -5 0 -12 16 -15
35 -10 50 -25 52 -19 3z"/>
</g>
</svg>
